<svg width="404" height="474" viewBox="0 0 404 474" fill="none" xmlns="http://www.w3.org/2000/svg">
<path fill-rule="evenodd" clip-rule="evenodd" d="M361.971 265.872H41.9712V413.968C41.9704 417.409 43.0791 420.759 45.1327 423.52C47.1863 426.281 50.0754 428.307 53.3712 429.296L197.371 472.496C200.372 473.392 203.57 473.392 206.571 472.496L350.571 429.296C353.867 428.307 356.756 426.281 358.81 423.52C360.863 420.759 361.972 417.409 361.971 413.968V265.872Z" fill="url(#paint0_linear_1038_40)"/>
<path fill-rule="evenodd" clip-rule="evenodd" d="M361.971 265.872H201.971C201.971 265.872 200.419 473.168 201.971 473.168C203.523 473.168 205.067 472.944 206.571 472.496L350.571 429.296C353.867 428.307 356.756 426.281 358.81 423.52C360.863 420.759 361.972 417.409 361.971 413.968V265.872Z" fill="url(#paint1_linear_1038_40)"/>
<path fill-rule="evenodd" clip-rule="evenodd" d="M201.971 317.784L41.9711 265.872L1.37106 326.064C0.677065 327.091 0.231294 328.266 0.0689208 329.495C-0.0934521 330.724 0.0320143 331.974 0.435422 333.146C0.838829 334.318 1.50914 335.381 2.39345 336.249C3.27777 337.118 4.35189 337.769 5.53106 338.152L149.491 384.92C151.141 385.456 152.92 385.442 154.56 384.879C156.201 384.317 157.614 383.236 158.587 381.8L201.971 317.784Z" fill="url(#paint2_linear_1038_40)"/>
<path fill-rule="evenodd" clip-rule="evenodd" d="M361.971 265.872L201.971 317.784L245.355 381.8C246.328 383.236 247.741 384.317 249.382 384.879C251.023 385.442 252.802 385.456 254.451 384.92L398.411 338.152C399.59 337.769 400.664 337.118 401.549 336.249C402.433 335.381 403.103 334.318 403.507 333.146C403.91 331.974 404.036 330.724 403.873 329.495C403.711 328.266 403.265 327.091 402.571 326.064L361.971 265.872Z" fill="url(#paint3_linear_1038_40)"/>
<path fill-rule="evenodd" clip-rule="evenodd" d="M163.243 156.824C162.268 155.393 160.855 154.316 159.217 153.757C157.578 153.197 155.802 153.184 154.155 153.72L10.1872 200.496C9.00716 200.876 7.93189 201.526 7.04654 202.394C6.1612 203.261 5.49011 204.323 5.08645 205.496C4.68279 206.668 4.55764 207.918 4.72092 209.147C4.8842 210.376 5.33143 211.55 6.02717 212.576L41.9712 265.872L201.971 213.784L163.243 156.824Z" fill="url(#paint4_linear_1038_40)"/>
<path fill-rule="evenodd" clip-rule="evenodd" d="M397.915 212.576C398.608 211.549 399.052 210.375 399.214 209.147C399.375 207.919 399.249 206.67 398.846 205.499C398.443 204.328 397.773 203.267 396.889 202.398C396.006 201.53 394.933 200.879 393.755 200.496L249.787 153.72C248.141 153.184 246.364 153.197 244.726 153.757C243.087 154.316 241.674 155.393 240.699 156.824L201.971 213.784L361.971 265.872L397.915 212.576Z" fill="url(#paint5_linear_1038_40)"/>
<path fill-rule="evenodd" clip-rule="evenodd" d="M361.971 265.872L201.971 213.784L41.9712 265.872L201.971 317.784L361.971 265.872Z" fill="url(#paint6_linear_1038_40)"/>
<path fill-rule="evenodd" clip-rule="evenodd" d="M201.971 317.784V213.784L41.9712 265.872L201.971 317.784Z" fill="url(#paint7_linear_1038_40)"/>
<path fill-rule="evenodd" clip-rule="evenodd" d="M169.827 236.76C166.647 234.693 163.64 232.371 160.835 229.816C159.263 228.442 157.216 227.737 155.131 227.852C153.046 227.967 151.089 228.892 149.677 230.43C148.265 231.969 147.51 233.998 147.574 236.085C147.638 238.172 148.516 240.151 150.019 241.6C153.291 244.608 156.979 247.472 161.075 250.152C162.851 251.275 164.997 251.655 167.05 251.209C169.104 250.762 170.899 249.526 172.048 247.768C173.198 246.009 173.609 243.868 173.193 241.809C172.778 239.749 171.569 237.936 169.827 236.76ZM144.899 212.184C142.626 209.121 140.608 205.875 138.867 202.48C137.905 200.589 136.231 199.157 134.213 198.5C132.195 197.843 129.999 198.014 128.107 198.976C126.216 199.938 124.784 201.613 124.127 203.631C123.47 205.648 123.641 207.845 124.603 209.736C126.635 213.72 129.099 217.712 132.019 221.672C133.293 223.338 135.17 224.436 137.246 224.732C139.321 225.028 141.43 224.497 143.118 223.253C144.806 222.009 145.939 220.153 146.272 218.083C146.605 216.013 146.112 213.895 144.899 212.184ZM133.203 179.536C133.283 176.312 133.755 173.184 134.619 170.184C134.909 169.174 134.996 168.117 134.877 167.073C134.758 166.029 134.434 165.019 133.925 164.1C133.415 163.181 132.73 162.371 131.907 161.717C131.085 161.063 130.141 160.578 129.131 160.288C128.121 159.999 127.064 159.911 126.02 160.03C124.976 160.15 123.966 160.473 123.047 160.983C122.128 161.492 121.318 162.178 120.664 163C120.01 163.823 119.525 164.766 119.235 165.776C117.998 170.126 117.315 174.615 117.203 179.136C117.15 181.258 117.942 183.314 119.405 184.852C120.868 186.389 122.881 187.283 125.003 187.336C127.125 187.389 129.181 186.597 130.719 185.135C132.256 183.672 133.15 181.658 133.203 179.536ZM145.507 152.816C147.563 150.912 149.867 149.152 152.387 147.56C153.276 147 154.046 146.27 154.652 145.412C155.259 144.554 155.691 143.585 155.923 142.56C156.155 141.535 156.183 140.475 156.005 139.439C155.828 138.404 155.448 137.413 154.887 136.524C154.327 135.635 153.597 134.866 152.739 134.259C151.881 133.653 150.912 133.221 149.887 132.989C148.862 132.756 147.802 132.728 146.766 132.906C145.73 133.084 144.74 133.464 143.851 134.024C140.568 136.087 137.483 138.449 134.635 141.08C133.118 142.532 132.232 144.521 132.169 146.62C132.106 148.718 132.87 150.758 134.297 152.298C135.723 153.838 137.698 154.755 139.796 154.852C141.893 154.949 143.944 154.218 145.507 152.816ZM175.259 139.016C179.482 138.245 183.754 137.775 188.043 137.608C190.113 137.449 192.04 136.491 193.418 134.938C194.795 133.385 195.516 131.358 195.428 129.284C195.34 127.21 194.449 125.251 192.945 123.82C191.44 122.39 189.439 121.6 187.363 121.616C182.083 121.84 177.075 122.408 172.347 123.28C170.26 123.666 168.413 124.866 167.21 126.614C166.008 128.363 165.549 130.518 165.935 132.604C166.321 134.691 167.521 136.539 169.269 137.741C171.018 138.944 173.172 139.402 175.259 139.016ZM216.955 138.544C223.779 138.624 230.131 138.384 236.027 137.864C238.121 137.652 240.047 136.623 241.388 135.001C242.729 133.379 243.376 131.293 243.19 129.197C243.003 127.101 241.998 125.162 240.393 123.801C238.787 122.441 236.71 121.768 234.611 121.928C229.211 122.4 223.395 122.624 217.139 122.544C215.017 122.52 212.973 123.339 211.455 124.822C209.938 126.305 209.072 128.331 209.047 130.452C209.023 132.574 209.842 134.619 211.325 136.136C212.808 137.654 214.833 138.52 216.955 138.544ZM262.323 132.96C270.243 130.536 276.931 127.432 282.531 123.872C283.417 123.308 284.184 122.574 284.786 121.713C285.389 120.852 285.816 119.881 286.043 118.855C286.271 117.829 286.294 116.769 286.111 115.734C285.928 114.699 285.544 113.71 284.979 112.824C284.415 111.938 283.681 111.172 282.82 110.569C281.959 109.967 280.988 109.539 279.962 109.312C278.936 109.085 277.876 109.062 276.841 109.244C275.806 109.427 274.817 109.812 273.931 110.376C268.854 113.524 263.375 115.973 257.643 117.656C255.614 118.277 253.914 119.678 252.918 121.552C251.922 123.426 251.711 125.619 252.331 127.648C252.952 129.678 254.353 131.377 256.227 132.374C258.101 133.37 260.294 133.581 262.323 132.96ZM303.043 101.48C306.643 94.0035 308.312 85.7441 307.899 77.4563C307.85 76.4067 307.595 75.3771 307.148 74.4262C306.702 73.4752 306.072 72.6216 305.295 71.914C304.519 71.2065 303.61 70.6588 302.622 70.3023C301.634 69.9458 300.585 69.7874 299.535 69.8363C298.486 69.8851 297.456 70.1402 296.505 70.587C295.554 71.0338 294.701 71.6634 293.993 72.4401C293.285 73.2168 292.738 74.1252 292.381 75.1135C292.025 76.1019 291.866 77.1507 291.915 78.2003C292.203 83.8289 291.075 89.4399 288.635 94.5203C287.819 96.4158 287.766 98.5533 288.487 100.487C289.208 102.421 290.648 104.001 292.507 104.899C294.365 105.797 296.498 105.942 298.461 105.305C300.425 104.668 302.066 103.298 303.043 101.48ZM297.947 49.1683C292.115 41.2883 284.203 35.8003 275.579 34.0323C273.532 33.6858 271.431 34.1477 269.718 35.3205C268.006 36.4933 266.815 38.2854 266.398 40.319C265.981 42.3525 266.37 44.4686 267.483 46.2209C268.595 47.9733 270.345 49.2251 272.363 49.7123C277.339 50.7283 281.723 54.1443 285.091 58.6963C285.717 59.5404 286.503 60.2531 287.404 60.7935C288.305 61.334 289.303 61.6917 290.343 61.8462C291.382 62.0007 292.441 61.949 293.461 61.6941C294.48 61.4391 295.439 60.9859 296.283 60.3603C297.127 59.7347 297.84 58.9489 298.38 58.0479C298.921 57.1468 299.279 56.1482 299.433 55.1089C299.588 54.0696 299.536 53.0101 299.281 51.9908C299.026 50.9715 298.573 50.0124 297.947 49.1683Z" fill="#009966"/>
<path fill-rule="evenodd" clip-rule="evenodd" d="M193.435 35.5839C202.091 -13.4321 277.107 -10.2641 233.435 35.5839H193.435Z" fill="url(#paint8_linear_1038_40)"/>
<path fill-rule="evenodd" clip-rule="evenodd" d="M193.435 48C202.091 97.008 277.107 93.848 233.435 48H193.435Z" fill="url(#paint9_linear_1038_40)"/>
<path fill-rule="evenodd" clip-rule="evenodd" d="M192.715 49.8721H246.283C248.405 49.8721 250.44 49.0292 251.94 47.5289C253.44 46.0286 254.283 43.9938 254.283 41.8721C254.283 39.7503 253.44 37.7155 251.94 36.2152C250.44 34.7149 248.405 33.8721 246.283 33.8721H192.715C190.655 33.9642 188.71 34.8473 187.285 36.3375C185.86 37.8277 185.065 39.8102 185.065 41.8721C185.065 43.934 185.86 45.9164 187.285 47.4066C188.71 48.8968 190.655 49.7799 192.715 49.8721Z" fill="url(#paint10_linear_1038_40)"/>
<defs>
<linearGradient id="paint0_linear_1038_40" x1="41.9712" y1="369.52" x2="361.971" y2="369.52" gradientUnits="userSpaceOnUse">
<stop stop-color="#CADCF0"/>
<stop offset="1" stop-color="#A4BBDB"/>
</linearGradient>
<linearGradient id="paint1_linear_1038_40" x1="201.283" y1="369.52" x2="361.971" y2="369.52" gradientUnits="userSpaceOnUse">
<stop stop-color="#A4BBDB"/>
<stop offset="1" stop-color="#8DA3BE"/>
</linearGradient>
<linearGradient id="paint2_linear_1038_40" x1="43.035" y1="265.808" x2="65.397" y2="413.755" gradientUnits="userSpaceOnUse">
<stop stop-color="#E9F3FC"/>
<stop offset="1" stop-color="#CADCF0"/>
</linearGradient>
<linearGradient id="paint3_linear_1038_40" x1="202.619" y1="317.24" x2="371.289" y2="414.247" gradientUnits="userSpaceOnUse">
<stop stop-color="#E9F3FC"/>
<stop offset="1" stop-color="#CADCF0"/>
</linearGradient>
<linearGradient id="paint4_linear_1038_40" x1="21.0272" y1="234.824" x2="45.1635" y2="121.046" gradientUnits="userSpaceOnUse">
<stop stop-color="#E9F3FC"/>
<stop offset="1" stop-color="#CADCF0"/>
</linearGradient>
<linearGradient id="paint5_linear_1038_40" x1="244.803" y1="151.792" x2="253.434" y2="292.23" gradientUnits="userSpaceOnUse">
<stop stop-color="#E9F3FC"/>
<stop offset="1" stop-color="#CADCF0"/>
</linearGradient>
<linearGradient id="paint6_linear_1038_40" x1="41.9712" y1="265.784" x2="361.971" y2="265.784" gradientUnits="userSpaceOnUse">
<stop stop-color="#CADCF0"/>
<stop offset="1" stop-color="#A4BBDB"/>
</linearGradient>
<linearGradient id="paint7_linear_1038_40" x1="218.427" y1="211.481" x2="221.874" y2="340.707" gradientUnits="userSpaceOnUse">
<stop stop-color="#A4BBDB"/>
<stop offset="1" stop-color="#8DA3BE"/>
</linearGradient>
<linearGradient id="paint8_linear_1038_40" x1="193.435" y1="17.7919" x2="246.995" y2="17.7919" gradientUnits="userSpaceOnUse">
<stop stop-color="#E9F3FC"/>
<stop offset="1" stop-color="#CADCF0"/>
</linearGradient>
<linearGradient id="paint9_linear_1038_40" x1="193.435" y1="65.792" x2="246.995" y2="65.792" gradientUnits="userSpaceOnUse">
<stop stop-color="#E9F3FC"/>
<stop offset="1" stop-color="#CADCF0"/>
</linearGradient>
<linearGradient id="paint10_linear_1038_40" x1="113.899" y1="35.5827" x2="271.691" y2="221.769" gradientUnits="userSpaceOnUse">
<stop stop-color="#559AFF"/>
<stop offset="1" stop-color="#2E69EF"/>
</linearGradient>
</defs>
</svg>
